{
  "accessors": [
    {
      "bufferView": 2,
      "componentType": 5126,
      "count": 6570,
      "max": [
        0.18387499451637268,
        0.25202301144599915,
        0.62804800271987915
      ],
      "min": [
        -0.18387499451637268,
        -0.25202298164367676,
        -0.62804800271987915
      ],
      "type": "VEC3"
    },
    {
      "bufferView": 2,
      "byteOffset": 78840,
      "componentType": 5126,
      "count": 6570,
      "max": [
        1,
        1,
        1
      ],
      "min": [
        -1,
        -1,
        -1
      ],
      "type": "VEC3"
    },
    {
      "bufferView": 3,
      "componentType": 5126,
      "count": 6570,
      "max": [
        1,
        1,
        1,
        1
      ],
      "min": [
        -1,
        -1,
        -1,
        -1
      ],
      "type": "VEC4"
    },
    {
      "bufferView": 1,
      "componentType": 5126,
      "count": 6570,
      "max": [
        0.99511700868606567,
        0.99348098039627075
      ],
      "min": [
        0.004883000161498785,
        0.004883000161498785
      ],
      "type": "VEC2"
    },
    {
      "bufferView": 1,
      "byteOffset": 52560,
      "componentType": 5126,
      "count": 6570,
      "max": [
        0.99511700868606567,
        0.99348098039627075
      ],
      "min": [
        0.004883000161498785,
        0.004883000161498785
      ],
      "type": "VEC2"
    },
    {
      "bufferView": 1,
      "byteOffset": 105120,
      "componentType": 5126,
      "count": 6570,
      "max": [
        0.99511700868606567,
        0.99348098039627075
      ],
      "min": [
        0.004883000161498785,
        0.004883000161498785
      ],
      "type": "VEC2"
    },
    {
      "bufferView": 1,
      "byteOffset": 157680,
      "componentType": 5126,
      "count": 6570,
      "max": [
        0.99511700868606567,
        0.99348098039627075
      ],
      "min": [
        0.004883000161498785,
        0.004883000161498785
      ],
      "type": "VEC2"
    },
    {
      "bufferView": 1,
      "byteOffset": 210240,
      "componentType": 5126,
      "count": 6570,
      "max": [
        0.99511700868606567,
        0.99348098039627075
      ],
      "min": [
        0.004883000161498785,
        0.004883000161498785
      ],
      "type": "VEC2"
    },
    {
      "bufferView": 0,
      "componentType": 5125,
      "count": 27858,
      "max": [
        6569
      ],
      "min": [
        0
      ],
      "type": "SCALAR"
    }
  ],
  "asset": {
    "extras": {
      "author": "Enalrem (https://sketchfab.com/enalrem)",
      "license": "CC-BY-4.0 (http://creativecommons.org/licenses/by/4.0/)",
      "source": "https://sketchfab.com/3d-models/cyborg-weapon-8bf111f38ff34ad38068739819fdaf0d",
      "title": "Cyborg Weapon"
    },
    "generator": "Sketchfab-8.99.0",
    "version": "2.0"
  },
  "bufferViews": [
    {
      "buffer": 0,
      "byteLength": 111432,
      "byteOffset": 0,
      "name": "floatBufferViews",
      "target": 34963
    },
    {
      "buffer": 0,
      "byteLength": 262800,
      "byteOffset": 111432,
      "byteStride": 8,
      "name": "floatBufferViews",
      "target": 34962
    },
    {
      "buffer": 0,
      "byteLength": 157680,
      "byteOffset": 374232,
      "byteStride": 12,
      "name": "floatBufferViews",
      "target": 34962
    },
    {
      "buffer": 0,
      "byteLength": 105120,
      "byteOffset": 531912,
      "byteStride": 16,
      "name": "floatBufferViews",
      "target": 34962
    }
  ],
  "buffers": [
    {
      "byteLength": 637032,
      "uri": "scene.bin"
    }
  ],
  "images": [
    {
      "uri": "textures/Cyborg_Weapon_mat_baseColor.png"
    },
    {
      "uri": "textures/Cyborg_Weapon_mat_metallicRoughness.png"
    },
    {
      "uri": "textures/Cyborg_Weapon_mat_normal.png"
    }
  ],
  "materials": [
    {
      "doubleSided": true,
      "name": "Cyborg_Weapon_mat",
      "normalTexture": {
        "index": 2,
        "scale": 1,
        "texCoord": 0
      },
      "occlusionTexture": {
        "index": 1,
        "strength": 1,
        "texCoord": 0
      },
      "pbrMetallicRoughness": {
        "baseColorFactor": [
          1,
          1,
          1,
          1
        ],
        "baseColorTexture": {
          "index": 0,
          "texCoord": 0
        },
        "metallicFactor": 1,
        "metallicRoughnessTexture": {
          "index": 1,
          "texCoord": 0
        },
        "roughnessFactor": 1
      }
    }
  ],
  "meshes": [
    {
      "name": "Cyborg_Weapon_Cyborg_Weapon_mat_0",
      "primitives": [
        {
          "attributes": {
            "NORMAL": 1,
            "POSITION": 0,
            "TANGENT": 2,
            "TEXCOORD_0": 3,
            "TEXCOORD_1": 4,
            "TEXCOORD_2": 5,
            "TEXCOORD_3": 6,
            "TEXCOORD_4": 7
          },
          "indices": 8,
          "material": 0,
          "mode": 4
        }
      ]
    }
  ],
  "nodes": [
    {
      "children": [
        1
      ],
      "name": "RootNode (gltf orientation matrix)",
      "rotation": [
        -0.70710678118654746,
        -0,
        -0,
        0.70710678118654757
      ]
    },
    {
      "children": [
        2
      ],
      "name": "RootNode (model correction matrix)"
    },
    {
      "children": [
        3
      ],
      "matrix": [
        1,
        0,
        0,
        0,
        0,
        0,
        1,
        0,
        0,
        -1,
        0,
        0,
        0,
        0,
        0,
        1
      ],
      "name": "Cyborg_Weapon.fbx"
    },
    {
      "children": [
        4
      ],
      "name": "RootNode"
    },
    {
      "children": [
        5
      ],
      "name": "Cyborg_Weapon"
    },
    {
      "mesh": 0,
      "name": "Cyborg_Weapon_Cyborg_Weapon_mat_0"
    }
  ],
  "samplers": [
    {
      "magFilter": 9729,
      "minFilter": 9987,
      "wrapS": 10497,
      "wrapT": 10497
    }
  ],
  "scene": 0,
  "scenes": [
    {
      "name": "OSG_Scene",
      "nodes": [
        0
      ]
    }
  ],
  "textures": [
    {
      "sampler": 0,
      "source": 0
    },
    {
      "sampler": 0,
      "source": 1
    },
    {
      "sampler": 0,
      "source": 2
    }
  ]
}

